<svg xmlns="http://www.w3.org/2000/svg" version="1.1" xmlns:xlink="http://www.w3.org/1999/xlink" xmlns:svgjs="http://svgjs.dev/svgjs" width="1440" height="560" preserveAspectRatio="none" viewBox="0 0 1440 560"><g mask="url(&quot;#SvgjsMask1121&quot;)" fill="none"><rect width="1440" height="560" x="0" y="0" fill="url(&quot;#SvgjsLinearGradient1122&quot;)"></rect><path d="M 0,444 C 57.6,369.6 172.8,77.4 288,72 C 403.2,66.6 460.8,397 576,417 C 691.2,437 748.8,161.4 864,172 C 979.2,182.6 1036.8,453.4 1152,470 C 1267.2,486.6 1382.4,298 1440,255L1440 560L0 560z" fill="rgba(12, 189, 141, 1)"></path><path d="M 0,281 C 36,251 108,95.6 180,131 C 252,166.4 288,441.6 360,458 C 432,474.4 468,215.4 540,213 C 612,210.6 648,462.6 720,446 C 792,429.4 828,147 900,130 C 972,113 1008,364.4 1080,361 C 1152,357.6 1188,107.4 1260,113 C 1332,118.6 1404,333.8 1440,389L1440 560L0 560z" fill="rgba(96, 28, 132, 1)"></path></g><defs><mask id="SvgjsMask1121"><rect width="1440" height="560" fill="#ffffff"></rect></mask><linearGradient x1="15.28%" y1="-39.29%" x2="84.72%" y2="139.29%" gradientUnits="userSpaceOnUse" id="SvgjsLinearGradient1122"><stop stop-color="#0e2a47" offset="0"></stop><stop stop-color="rgba(39, 40, 41, 1)" offset="1"></stop></linearGradient></defs></svg>