<svg xmlns="http://www.w3.org/2000/svg" version="1.1" xmlns:xlink="http://www.w3.org/1999/xlink" xmlns:svgjs="http://svgjs.dev/svgjs" width="1440" height="560" preserveAspectRatio="none" viewBox="0 0 1440 560"><g mask="url(&quot;#SvgjsMask1076&quot;)" fill="none"><rect width="1440" height="560" x="0" y="0" fill="url(&quot;#SvgjsLinearGradient1077&quot;)"></rect><path d="M0 0L89.78 0L0 269.13z" fill="rgba(255, 255, 255, .1)"></path><path d="M0 269.13L89.78 0L834.16 0L0 345.65999999999997z" fill="rgba(255, 255, 255, .075)"></path><path d="M0 345.65999999999997L834.16 0L909.68 0L0 425.05999999999995z" fill="rgba(255, 255, 255, .05)"></path><path d="M0 425.05999999999995L909.68 0L1204.72 0L0 446.87999999999994z" fill="rgba(255, 255, 255, .025)"></path><path d="M1440 560L1302.79 560L1440 554.92z" fill="rgba(0, 0, 0, .1)"></path><path d="M1440 554.92L1302.79 560L1266.5 560L1440 312.21999999999997z" fill="rgba(0, 0, 0, .075)"></path><path d="M1440 312.22L1266.5 560L951.69 560L1440 203.78000000000003z" fill="rgba(0, 0, 0, .05)"></path><path d="M1440 203.77999999999997L951.69 560L406.6300000000001 560L1440 187.39999999999998z" fill="rgba(0, 0, 0, .025)"></path></g><defs><mask id="SvgjsMask1076"><rect width="1440" height="560" fill="#ffffff"></rect></mask><linearGradient x1="84.72%" y1="139.29%" x2="15.28%" y2="-39.29%" gradientUnits="userSpaceOnUse" id="SvgjsLinearGradient1077"><stop stop-color="#0e2a47" offset="0"></stop><stop stop-color="rgba(204, 27, 27, 1)" offset="0.28"></stop><stop stop-color="rgba(0, 0, 0, 1)" offset="1"></stop></linearGradient></defs></svg>